<svg width="16" height="16" viewBox="0 0 16 16" fill="none" xmlns="http://www.w3.org/2000/svg">
<g clip-path="url(#clip0_22747_32648)">
<path d="M8.53086 0.21875C8.23711 -0.0749996 7.76211 -0.0749995 7.47148 0.21875L2.21836 5.46875C1.92461 5.7625 1.92461 6.2375 2.21836 6.52813C2.51211 6.81875 2.98711 6.82188 3.27773 6.52813L7.24648 2.55938L7.24648 15.25C7.24648 15.6656 7.58086 16 7.99648 16C8.41211 16 8.74648 15.6656 8.74648 15.25L8.74648 2.55938L12.7152 6.52813C13.009 6.82188 13.484 6.82187 13.7746 6.52812C14.0652 6.23437 14.0684 5.75938 13.7746 5.46875L8.53086 0.21875Z" fill="black"/>
</g>
<defs>
<clipPath id="clip0_22747_32648">
<rect width="16" height="16" fill="white" transform="translate(6.99383e-07 16) rotate(-90)"/>
</clipPath>
</defs>
</svg>
