<svg width="16" height="16" viewBox="0 0 16 16" fill="none" xmlns="http://www.w3.org/2000/svg">
<g clip-path="url(#clip0_9566_44810)">
<path d="M8 1.5C9.72391 1.5 11.3772 2.18482 12.5962 3.40381C13.8152 4.62279 14.5 6.27609 14.5 8C14.5 9.72391 13.8152 11.3772 12.5962 12.5962C11.3772 13.8152 9.72391 14.5 8 14.5C6.27609 14.5 4.62279 13.8152 3.40381 12.5962C2.18482 11.3772 1.5 9.72391 1.5 8C1.5 6.27609 2.18482 4.62279 3.40381 3.40381C4.62279 2.18482 6.27609 1.5 8 1.5ZM8 16C10.1217 16 12.1566 15.1571 13.6569 13.6569C15.1571 12.1566 16 10.1217 16 8C16 5.87827 15.1571 3.84344 13.6569 2.34315C12.1566 0.842855 10.1217 0 8 0C5.87827 0 3.84344 0.842855 2.34315 2.34315C0.842855 3.84344 0 5.87827 0 8C0 10.1217 0.842855 12.1566 2.34315 13.6569C3.84344 15.1571 5.87827 16 8 16ZM6.33125 4.775C6.06875 4.45313 5.59688 4.40625 5.275 4.66875C4.95313 4.93125 4.90625 5.40312 5.16875 5.725L7.03125 8L5.16875 10.275C4.90625 10.5969 4.95313 11.0688 5.275 11.3313C5.59688 11.5938 6.06875 11.5469 6.33125 11.225L8 9.18437L9.66875 11.225C9.93125 11.5469 10.4031 11.5938 10.725 11.3313C11.0469 11.0688 11.0938 10.5969 10.8313 10.275L8.96875 8L10.8313 5.725C11.0938 5.40312 11.0469 4.93125 10.725 4.66875C10.4031 4.40625 9.93125 4.45313 9.66875 4.775L8 6.81563L6.33125 4.775Z" fill="black"/>
</g>
<defs>
<clipPath id="clip0_9566_44810">
<rect width="16" height="16" fill="white"/>
</clipPath>
</defs>
</svg>
