<svg width="24" height="24" viewBox="0 0 24 24" fill="none" xmlns="http://www.w3.org/2000/svg">
<path d="M13.7303 6.42203C13.4525 6.33672 13.1594 6.48984 13.0741 6.76765L9.92406 16.9177C9.83875 17.1955 9.99188 17.4886 10.2697 17.5739C10.5475 17.6592 10.8406 17.5061 10.9259 17.2283L14.0759 7.07828C14.1613 6.80047 14.0081 6.50734 13.7303 6.42203ZM15.2922 9.01422C15.0931 9.2264 15.1041 9.5589 15.3163 9.75578L17.7072 11.998L15.3163 14.2402C15.1041 14.4392 15.0931 14.7717 15.2922 14.9817C15.4913 15.1917 15.8238 15.2048 16.0338 15.0058L18.8338 12.3808C18.9388 12.2823 19 12.1423 19 11.998C19 11.8536 18.9409 11.7136 18.8338 11.6152L16.0338 8.99015C15.8216 8.79109 15.4891 8.80203 15.2922 9.01422ZM8.70781 9.01422C8.50875 8.80203 8.17625 8.79109 7.96625 8.99015L5.16625 11.6152C5.05906 11.7136 5 11.8536 5 11.998C5 12.1423 5.05906 12.2823 5.16625 12.3808L7.96625 15.0058C8.17844 15.2048 8.51094 15.1939 8.70781 14.9817C8.90469 14.7695 8.89594 14.437 8.68375 14.2402L6.29281 11.998L8.68375 9.75578C8.89594 9.55672 8.90688 9.22422 8.70781 9.01422Z" fill="#6B6F76"/>
</svg>
