<svg width="24" height="24" viewBox="0 0 24 24" fill="none" xmlns="http://www.w3.org/2000/svg">
<g clip-path="url(#clip0_9491_46152)">
<path d="M8.69566 6.55469C7.51441 6.55469 6.55677 7.51233 6.55677 8.69358V9.79948C6.55677 10.0571 6.45469 10.305 6.2724 10.4873L5.17135 11.5859C4.94288 11.8144 4.94288 12.1839 5.17135 12.4099L6.2724 13.5109C6.45469 13.6932 6.55677 13.9411 6.55677 14.1988V15.3047C6.55677 16.4859 7.51441 17.4436 8.69566 17.4436H9.86233C10.1856 17.4436 10.4457 17.1835 10.4457 16.8602C10.4457 16.537 10.1856 16.2769 9.86233 16.2769H8.69566C8.15851 16.2769 7.72344 15.8418 7.72344 15.3047V14.1988C7.72344 13.6325 7.4974 13.088 7.09635 12.687L6.40851 11.9991L7.09635 11.3113C7.4974 10.9102 7.72344 10.3658 7.72344 9.79948V8.69358C7.72344 8.15642 8.15851 7.72135 8.69566 7.72135H9.86233C10.1856 7.72135 10.4457 7.46128 10.4457 7.13802C10.4457 6.81476 10.1856 6.55469 9.86233 6.55469H8.69566ZM15.3068 6.55469H14.1401C13.8168 6.55469 13.5568 6.81476 13.5568 7.13802C13.5568 7.46128 13.8168 7.72135 14.1401 7.72135H15.3068C15.8439 7.72135 16.279 8.15642 16.279 8.69358V9.79948C16.279 10.3658 16.505 10.9102 16.9061 11.3113L17.5939 11.9991L16.9061 12.687C16.505 13.088 16.279 13.6325 16.279 14.1988V15.3047C16.279 15.8418 15.8439 16.2769 15.3068 16.2769H14.1401C13.8168 16.2769 13.5568 16.537 13.5568 16.8602C13.5568 17.1835 13.8168 17.4436 14.1401 17.4436H15.3068C16.488 17.4436 17.4457 16.4859 17.4457 15.3047V14.1988C17.4457 13.9411 17.5477 13.6932 17.73 13.5109L18.8311 12.4123C19.0595 12.1839 19.0595 11.8144 18.8311 11.5884L17.73 10.4873C17.5477 10.305 17.4457 10.0571 17.4457 9.79948V8.69358C17.4457 7.51233 16.488 6.55469 15.3068 6.55469Z" fill="#6B6F76"/>
</g>
<defs>
<clipPath id="clip0_9491_46152">
<rect width="14" height="14" fill="white" transform="translate(5 5)"/>
</clipPath>
</defs>
</svg>
