<svg width="14" height="14" viewBox="0 0 14 14" fill="none" xmlns="http://www.w3.org/2000/svg">
<path d="M1.17969 2.6375C1.17969 1.37504 2.20316 0.351562 3.46563 0.351562H10.9469C11.9807 0.351562 12.8172 1.18801 12.8172 2.22188V8.87188C12.8172 9.52129 12.4873 10.0928 11.9859 10.4279V12.4047H12.1938C12.5392 12.4047 12.8172 12.6826 12.8172 13.0281C12.8172 13.3736 12.5392 13.6516 12.1938 13.6516H3.25781C2.10965 13.6516 1.17969 12.7216 1.17969 11.5734V2.6375ZM2.42656 11.5734C2.42656 12.0332 2.79803 12.4047 3.25781 12.4047H10.7391V10.7422H3.25781C2.79803 10.7422 2.42656 11.1137 2.42656 11.5734ZM2.42656 9.66936C2.68113 9.55766 2.96168 9.49531 3.25781 9.49531H10.9469C11.2924 9.49531 11.5703 9.21736 11.5703 8.87188V2.22188C11.5703 1.87639 11.2924 1.59844 10.9469 1.59844H3.46563C2.89154 1.59844 2.42656 2.06342 2.42656 2.6375V9.66936ZM5.75156 4.50781C5.75156 4.34407 5.78381 4.18193 5.84648 4.03065C5.90914 3.87938 6.00098 3.74192 6.11676 3.62614C6.23255 3.51036 6.37 3.41851 6.52128 3.35585C6.67256 3.29319 6.8347 3.26094 6.99844 3.26094C7.16218 3.26094 7.32432 3.29319 7.4756 3.35585C7.62687 3.41851 7.76433 3.51036 7.88011 3.62614C7.99589 3.74192 8.08774 3.87938 8.1504 4.03065C8.21306 4.18193 8.24531 4.34407 8.24531 4.50781C8.24531 4.67155 8.21306 4.83369 8.1504 4.98497C8.08774 5.13625 7.99589 5.2737 7.88011 5.38949C7.76433 5.50527 7.62687 5.59711 7.4756 5.65978C7.32432 5.72244 7.16218 5.75469 6.99844 5.75469C6.8347 5.75469 6.67256 5.72244 6.52128 5.65978C6.37 5.59711 6.23255 5.50527 6.11676 5.38949C6.00098 5.2737 5.90914 5.13625 5.84648 4.98497C5.78381 4.83369 5.75156 4.67155 5.75156 4.50781ZM5.25801 8.04063C4.87355 8.04063 4.57742 7.68475 4.79043 7.36524C5.09955 6.89766 5.63207 6.58594 6.23732 6.58594H7.76215C8.3674 6.58594 8.89732 6.89506 9.20904 7.36524C9.41945 7.68475 9.12592 8.04063 8.74147 8.04063H5.26061H5.25801Z" fill="#212B36"/>
</svg>
