<svg width="24" height="24" viewBox="0 0 24 24" fill="none" xmlns="http://www.w3.org/2000/svg">
<path d="M5.54872 6.53125C5.54872 6.16758 5.8413 5.875 6.20497 5.875H7.07997C7.44364 5.875 7.73622 6.16758 7.73622 6.53125V9.8125H8.17372C8.53739 9.8125 8.82997 10.1051 8.82997 10.4688C8.82997 10.8324 8.53739 11.125 8.17372 11.125H5.98622C5.62255 11.125 5.32997 10.8324 5.32997 10.4688C5.32997 10.1051 5.62255 9.8125 5.98622 9.8125H6.42372V7.1875H6.20497C5.8413 7.1875 5.54872 6.89492 5.54872 6.53125ZM7.26317 14.3297C7.08544 14.1273 6.76278 14.141 6.60692 14.3625L6.30067 14.7863C6.09013 15.0816 5.67997 15.15 5.38466 14.9395C5.08935 14.7289 5.02099 14.3188 5.23153 14.0234L5.53505 13.5969C6.1831 12.6891 7.512 12.6234 8.24755 13.4629C8.82997 14.1301 8.8163 15.1281 8.21747 15.7789L7.26591 16.8125H8.17372C8.53739 16.8125 8.82997 17.1051 8.82997 17.4688C8.82997 17.8324 8.53739 18.125 8.17372 18.125H5.76747C5.50771 18.125 5.26982 17.9719 5.16591 17.7313C5.062 17.4906 5.10849 17.2145 5.28349 17.023L7.25224 14.8902C7.39716 14.7316 7.39989 14.491 7.26044 14.3297H7.26317ZM10.7987 6.96875H18.2362C18.5999 6.96875 18.8925 7.26133 18.8925 7.625C18.8925 7.98867 18.5999 8.28125 18.2362 8.28125H10.7987C10.4351 8.28125 10.1425 7.98867 10.1425 7.625C10.1425 7.26133 10.4351 6.96875 10.7987 6.96875ZM10.7987 11.3438H18.2362C18.5999 11.3438 18.8925 11.6363 18.8925 12C18.8925 12.3637 18.5999 12.6563 18.2362 12.6563H10.7987C10.4351 12.6563 10.1425 12.3637 10.1425 12C10.1425 11.6363 10.4351 11.3438 10.7987 11.3438ZM10.7987 15.7188H18.2362C18.5999 15.7188 18.8925 16.0113 18.8925 16.375C18.8925 16.7387 18.5999 17.0313 18.2362 17.0313H10.7987C10.4351 17.0313 10.1425 16.7387 10.1425 16.375C10.1425 16.0113 10.4351 15.7188 10.7987 15.7188Z" fill="#6B6F76"/>
</svg>
