<svg width="24" height="24" viewBox="0 0 24 24" fill="none" xmlns="http://www.w3.org/2000/svg">
<path d="M10.25 6.53125C10.25 6.16758 10.5426 5.875 10.9063 5.875H16.5938C16.9574 5.875 17.25 6.16758 17.25 6.53125C17.25 6.89492 16.9574 7.1875 16.5938 7.1875H14.7152L10.7066 16.8125H13.0938C13.4574 16.8125 13.75 17.1051 13.75 17.4688C13.75 17.8324 13.4574 18.125 13.0938 18.125H7.40625C7.04258 18.125 6.75 17.8324 6.75 17.4688C6.75 17.1051 7.04258 16.8125 7.40625 16.8125H9.28477L13.2934 7.1875H10.9063C10.5426 7.1875 10.25 6.89492 10.25 6.53125Z" fill="#6B6F76"/>
</svg>
