<svg width="16" height="16" viewBox="0 0 16 16" fill="none" xmlns="http://www.w3.org/2000/svg">
<path d="M5.30078 4C5.30078 3.33696 5.56417 2.70107 6.03301 2.23223C6.50186 1.76339 7.13774 1.5 7.80078 1.5C8.46382 1.5 9.09971 1.76339 9.56855 2.23223C10.0374 2.70107 10.3008 3.33696 10.3008 4C10.3008 4.66304 10.0374 5.29893 9.56855 5.76777C9.09971 6.23661 8.46382 6.5 7.80078 6.5C7.13774 6.5 6.50186 6.23661 6.03301 5.76777C5.56417 5.29893 5.30078 4.66304 5.30078 4ZM11.8008 4C11.8008 2.93913 11.3794 1.92172 10.6292 1.17157C9.87906 0.421427 8.86165 0 7.80078 0C6.73992 0 5.7225 0.421427 4.97235 1.17157C4.22221 1.92172 3.80078 2.93913 3.80078 4C3.80078 5.06087 4.22221 6.07828 4.97235 6.82843C5.7225 7.57857 6.73992 8 7.80078 8C8.86165 8 9.87906 7.57857 10.6292 6.82843C11.3794 6.07828 11.8008 5.06087 11.8008 4ZM2.30078 15C2.30078 12.7906 4.09141 11 6.30078 11H9.30078C11.5102 11 13.3008 12.7906 13.3008 15V15.25C13.3008 15.6656 13.6352 16 14.0508 16C14.4664 16 14.8008 15.6656 14.8008 15.25V15C14.8008 11.9625 12.3383 9.5 9.30078 9.5H6.30078C3.26328 9.5 0.800781 11.9625 0.800781 15V15.25C0.800781 15.6656 1.13516 16 1.55078 16C1.96641 16 2.30078 15.6656 2.30078 15.25V15Z" fill="#6B6F76"/>
</svg>
