<svg width="16" height="16" viewBox="0 0 16 16" fill="none" xmlns="http://www.w3.org/2000/svg">
<path d="M2.80078 13.3008H8.30078V10.5508C8.30078 9.30703 9.30703 8.30078 10.5508 8.30078H13.3008V2.80078C13.3008 2.52578 13.0758 2.30078 12.8008 2.30078H2.80078C2.52578 2.30078 2.30078 2.52578 2.30078 2.80078V12.8008C2.30078 13.0758 2.52578 13.3008 2.80078 13.3008ZM9.80078 12.6789L12.6789 9.80078H10.5508C10.1352 9.80078 9.80078 10.1352 9.80078 10.5508V12.6789ZM2.80078 14.8008C1.69766 14.8008 0.800781 13.9039 0.800781 12.8008V2.80078C0.800781 1.69766 1.69766 0.800781 2.80078 0.800781H12.8008C13.9039 0.800781 14.8008 1.69766 14.8008 2.80078V8.97266C14.8008 9.50391 14.5914 10.0133 14.2164 10.3883L10.3852 14.2164C10.0102 14.5914 9.50078 14.8008 8.96953 14.8008H2.80078ZM3.42578 11.3008C3.42578 11.0687 3.51797 10.8462 3.68206 10.6821C3.84616 10.518 4.06872 10.4258 4.30078 10.4258C4.53285 10.4258 4.75541 10.518 4.9195 10.6821C5.08359 10.8462 5.17578 11.0687 5.17578 11.3008C5.17578 11.5328 5.08359 11.7554 4.9195 11.9195C4.75541 12.0836 4.53285 12.1758 4.30078 12.1758C4.06872 12.1758 3.84616 12.0836 3.68206 11.9195C3.51797 11.7554 3.42578 11.5328 3.42578 11.3008ZM4.30078 5.17578C4.06872 5.17578 3.84616 5.08359 3.68206 4.9195C3.51797 4.75541 3.42578 4.53285 3.42578 4.30078C3.42578 4.06872 3.51797 3.84616 3.68206 3.68206C3.84616 3.51797 4.06872 3.42578 4.30078 3.42578C4.53285 3.42578 4.75541 3.51797 4.9195 3.68206C5.08359 3.84616 5.17578 4.06872 5.17578 4.30078C5.17578 4.53285 5.08359 4.75541 4.9195 4.9195C4.75541 5.08359 4.53285 5.17578 4.30078 5.17578ZM3.42578 7.80078C3.42578 7.56872 3.51797 7.34616 3.68206 7.18206C3.84616 7.01797 4.06872 6.92578 4.30078 6.92578C4.53285 6.92578 4.75541 7.01797 4.9195 7.18206C5.08359 7.34616 5.17578 7.56872 5.17578 7.80078C5.17578 8.03285 5.08359 8.2554 4.9195 8.4195C4.75541 8.58359 4.53285 8.67578 4.30078 8.67578C4.06872 8.67578 3.84616 8.58359 3.68206 8.4195C3.51797 8.2554 3.42578 8.03285 3.42578 7.80078Z" fill="#6B6F76"/>
</svg>
