<svg width="16" height="16" viewBox="0 4.5 13 13" fill="none" xmlns="http://www.w3.org/2000/svg">
<g clip-path="url(#clip0_9487_46003)">
<path d="M6.5 5.71875C7.90068 5.71875 9.24398 6.27517 10.2344 7.26559C11.2248 8.25602 11.7813 9.59933 11.7813 11C11.7813 12.4007 11.2248 13.744 10.2344 14.7344C9.24398 15.7248 7.90068 16.2813 6.5 16.2813C5.09933 16.2813 3.75602 15.7248 2.76559 14.7344C1.77517 13.744 1.21875 12.4007 1.21875 11C1.21875 9.59933 1.77517 8.25602 2.76559 7.26559C3.75602 6.27517 5.09933 5.71875 6.5 5.71875ZM6.5 17.5C8.22391 17.5 9.87721 16.8152 11.0962 15.5962C12.3152 14.3772 13 12.7239 13 11C13 9.27609 12.3152 7.62279 11.0962 6.40381C9.87721 5.18482 8.22391 4.5 6.5 4.5C4.77609 4.5 3.12279 5.18482 1.90381 6.40381C0.68482 7.62279 0 9.27609 0 11C0 12.7239 0.68482 14.3772 1.90381 15.5962C3.12279 16.8152 4.77609 17.5 6.5 17.5ZM5.48438 13.0313C5.14668 13.0313 4.875 13.3029 4.875 13.6406C4.875 13.9783 5.14668 14.25 5.48438 14.25H7.51563C7.85332 14.25 8.125 13.9783 8.125 13.6406C8.125 13.3029 7.85332 13.0313 7.51563 13.0313H7.3125V10.7969C7.3125 10.4592 7.04082 10.1875 6.70313 10.1875H5.48438C5.14668 10.1875 4.875 10.4592 4.875 10.7969C4.875 11.1346 5.14668 11.4063 5.48438 11.4063H6.09375V13.0313H5.48438ZM6.5 9.375C6.71549 9.375 6.92215 9.2894 7.07452 9.13702C7.2269 8.98465 7.3125 8.77799 7.3125 8.5625C7.3125 8.34701 7.2269 8.14035 7.07452 7.98798C6.92215 7.8356 6.71549 7.75 6.5 7.75C6.28451 7.75 6.07785 7.8356 5.92548 7.98798C5.7731 8.14035 5.6875 8.34701 5.6875 8.5625C5.6875 8.77799 5.7731 8.98465 5.92548 9.13702C6.07785 9.2894 6.28451 9.375 6.5 9.375Z" fill="#0C41BB"/>
</g>
<defs>
<clipPath id="clip0_9487_46003">
<rect width="13" height="13" fill="white" transform="translate(0 4.5)"/>
</clipPath>
</defs>
</svg>
