<svg width="28" height="28" viewBox="0 0 28 28" fill="none" xmlns="http://www.w3.org/2000/svg">
<path d="M0 6C0 2.68629 2.68629 0 6 0H22C25.3137 0 28 2.68629 28 6V22C28 25.3137 25.3137 28 22 28H6C2.68629 28 0 25.3137 0 22V6Z" fill="white"/>
<path d="M18.4033 9.04207C17.694 8.3325 16.5455 8.3325 15.8362 9.04207L10.6013 14.282C9.40915 15.4719 9.40915 17.4042 10.6013 18.5941C11.7934 19.784 13.7221 19.784 14.9142 18.5941L19.058 14.4458C19.3144 14.1892 19.729 14.1892 19.9827 14.4458C20.2364 14.7023 20.2392 15.1171 19.9827 15.371L15.839 19.522C14.1367 21.225 11.3787 21.225 9.67649 19.522C7.97424 17.819 7.97151 15.0571 9.67376 13.3541L14.9115 8.11416C16.1309 6.89424 18.1114 6.89424 19.3308 8.11416C20.5502 9.33409 20.5502 11.3127 19.3308 12.5326L14.3168 17.5488C13.4547 18.4112 12.0362 18.3321 11.2751 17.3796C10.6258 16.5663 10.6886 15.3928 11.4251 14.6559L15.5662 10.5158C15.8226 10.2593 16.2372 10.2593 16.4909 10.5158C16.7446 10.7723 16.7474 11.1872 16.4909 11.441L12.3526 15.5838C12.088 15.8486 12.0635 16.2688 12.2981 16.5609C12.5709 16.902 13.081 16.932 13.3893 16.6209L18.4033 11.6075C19.1125 10.8979 19.1125 9.74892 18.4033 9.03934V9.04207Z" fill="#6B6F76"/>
</svg>
