<svg width="24" height="24" viewBox="0 0 24 24" fill="none" xmlns="http://www.w3.org/2000/svg">
<path d="M18.0245 12.1917C19.3252 10.8666 19.3252 8.71842 18.0245 7.39323C16.7862 6.1317 14.7981 6.06332 13.4789 7.23996L13.3377 7.36729C13.1063 7.57243 13.0832 7.93085 13.2845 8.16665C13.4859 8.40245 13.8377 8.42603 14.0691 8.22088L14.2103 8.09355C15.0898 7.3107 16.4136 7.3555 17.2399 8.1973C18.1055 9.07919 18.1055 10.5105 17.2399 11.3947L14.6176 14.064C13.752 14.9459 12.3449 14.9459 11.4793 14.064C10.653 13.2222 10.609 11.8734 11.3774 10.9774L11.4862 10.85C11.6876 10.6142 11.6644 10.2582 11.433 10.0507C11.2015 9.84318 10.852 9.86912 10.6484 10.1049L10.5396 10.2323C9.38701 11.5763 9.45412 13.6018 10.6923 14.8634C11.9931 16.1885 14.1015 16.1885 15.4022 14.8634L18.0245 12.1917ZM5.97553 11.6636C4.67482 12.9887 4.67482 15.1369 5.97553 16.4597C7.21607 17.7236 9.20417 17.7896 10.5234 16.613L10.6646 16.4857C10.896 16.2805 10.9192 15.9221 10.7178 15.6863C10.5164 15.4505 10.1647 15.4269 9.93321 15.6321L9.79203 15.7594C8.91255 16.5422 7.58869 16.4974 6.76244 15.6556C5.89684 14.7737 5.89684 13.3424 6.76244 12.4582L9.38469 9.79131C10.2503 8.90942 11.6552 8.90942 12.5231 9.79131C13.3493 10.6331 13.3933 11.9819 12.6249 12.8779L12.4999 13.0218C12.2986 13.2576 12.3217 13.6136 12.5532 13.8211C12.7846 14.0286 13.1341 14.0027 13.3377 13.7669L13.4627 13.623C14.6176 12.279 14.5505 10.2535 13.3123 8.98959C12.0116 7.6644 9.90312 7.6644 8.60241 8.98959L5.97553 11.6636Z" fill="#6B6F76"/>
</svg>
