<svg width="24" height="24" viewBox="0 0 24 24" fill="none" xmlns="http://www.w3.org/2000/svg">
<path d="M6.96875 6.53125C6.96875 6.16758 7.26133 5.875 7.625 5.875H8.9375H9.375H12.7656C14.6387 5.875 16.1563 7.39258 16.1563 9.26563C16.1563 10.2145 15.7652 11.0758 15.1363 11.691C16.2574 12.2434 17.0313 13.3973 17.0313 14.7344C17.0313 16.6074 15.5137 18.125 13.6406 18.125H9.375H8.9375H7.625C7.26133 18.125 6.96875 17.8324 6.96875 17.4688C6.96875 17.1051 7.26133 16.8125 7.625 16.8125H8.28125V12V7.1875H7.625C7.26133 7.1875 6.96875 6.89492 6.96875 6.53125ZM12.7656 11.3438C13.9141 11.3438 14.8438 10.4141 14.8438 9.26563C14.8438 8.11719 13.9141 7.1875 12.7656 7.1875H9.59375V11.3438H12.7656ZM9.59375 12.6563V16.8125H13.6406C14.7891 16.8125 15.7188 15.8828 15.7188 14.7344C15.7188 13.5859 14.7891 12.6563 13.6406 12.6563H12.7656H9.59375Z" fill="#6B6F76"/>
</svg>
