<svg width="40" height="40" viewBox="0 0 40 40" fill="none" xmlns="http://www.w3.org/2000/svg">
<g clip-path="url(#clip0_9487_45994)">
<path d="M0 6C0 2.68629 2.68629 0 6 0H34C37.3137 0 40 2.68629 40 6V34C40 37.3137 37.3137 40 34 40H6C2.68629 40 0 37.3137 0 34V6Z" fill="white"/>
<rect width="40" height="40" rx="2" fill="black"/>
</g>
<path d="M6 0.25H34C37.1756 0.25 39.75 2.82436 39.75 6V34C39.75 37.1756 37.1756 39.75 34 39.75H6C2.82436 39.75 0.25 37.1756 0.25 34V6C0.25 2.82436 2.82436 0.25 6 0.25Z" stroke="#DFE1E4" stroke-width="0.5"/>
<path d="M21.852 27.2539H25.7844C26.4558 27.2539 27 26.7097 27 26.0383V22.1059C27 21.4346 26.4558 20.8903 25.7844 20.8903H21.852C21.1806 20.8903 20.6364 21.4346 20.6364 22.1059V26.0383C20.6364 26.7097 21.1806 27.2539 21.852 27.2539Z" fill="white"/>
<path d="M23.8191 13H23.8179C22.061 13 20.6367 14.4243 20.6367 16.1812V16.1824C20.6367 17.9393 22.061 19.3636 23.8179 19.3636H23.8191C25.576 19.3636 27.0003 17.9393 27.0003 16.1824V16.1812C27.0003 14.4243 25.576 13 23.8191 13Z" fill="white"/>
<path d="M16.1824 13H16.1812C14.4243 13 13 14.4243 13 16.1812V16.1824C13 17.9393 14.4243 19.3636 16.1812 19.3636H16.1824C17.9393 19.3636 19.3636 17.9393 19.3636 16.1824V16.1812C19.3636 14.4243 17.9393 13 16.1824 13Z" fill="white"/>
<path d="M16.1824 20.8906H16.1812C14.4243 20.8906 13 22.3149 13 24.0718V24.073C13 25.83 14.4243 27.2542 16.1812 27.2542H16.1824C17.9393 27.2542 19.3636 25.83 19.3636 24.073V24.0718C19.3636 22.3149 17.9393 20.8906 16.1824 20.8906Z" fill="white"/>
<defs>
<clipPath id="clip0_9487_45994">
<path d="M0 6C0 2.68629 2.68629 0 6 0H34C37.3137 0 40 2.68629 40 6V34C40 37.3137 37.3137 40 34 40H6C2.68629 40 0 37.3137 0 34V6Z" fill="white"/>
</clipPath>
</defs>
</svg>
