<svg width="16" height="16" viewBox="0 0 16 16" fill="none" xmlns="http://www.w3.org/2000/svg">
<path d="M1.62188 12.0281C0.603125 10.7688 0 9.2 0 7.5C0 3.35938 3.58125 0 8 0C12.4188 0 16 3.35938 16 7.5C16 11.6406 12.4188 15 8 15C6.85938 15 5.775 14.775 4.79375 14.375L1.15625 15.9344C1.04063 15.9844 0.921875 16 0.796875 16C0.35625 16 0 15.6438 0 15.2031C0 15.0688 0.034375 14.9375 0.096875 14.8219L1.62188 12.0281ZM2.7875 11.0844C3.16875 11.5563 3.22813 12.2125 2.9375 12.7469L2.375 13.7813L4.20313 12.9969C4.57188 12.8375 4.99063 12.8344 5.3625 12.9875C6.16563 13.3156 7.05625 13.5 7.99688 13.5C11.6781 13.5 14.4969 10.725 14.4969 7.5C14.4969 4.275 11.6813 1.5 8 1.5C4.31875 1.5 1.5 4.275 1.5 7.5C1.5 8.8375 1.97188 10.075 2.7875 11.0844Z" fill="#6B6F76"/>
</svg>
