<svg width="24" height="24" viewBox="0 0 24 24" fill="none" xmlns="http://www.w3.org/2000/svg">
<path d="M7.28571 12.4286H11.3571V9.42857H7.28571V12.4286ZM6 13.7143V7.71429C6 6.76875 6.76875 6 7.71429 6H16.2857C17.2312 6 18 6.76875 18 7.71429V16.2857C18 17.2312 17.2312 18 16.2857 18H7.71429C6.76875 18 6 17.2312 6 16.2857V13.7143ZM16.7143 12.4286V9.42857H12.6429V12.4286H16.7143ZM16.7143 13.7143H12.6429V16.7143H16.2857C16.5214 16.7143 16.7143 16.5214 16.7143 16.2857V13.7143ZM11.3571 16.7143V13.7143H7.28571V16.2857C7.28571 16.5214 7.47857 16.7143 7.71429 16.7143H11.3571Z" fill="#6B6F76"/>
</svg>
