<svg width="20" height="20" viewBox="0 0 20 20" fill="none" xmlns="http://www.w3.org/2000/svg">
<path d="M10.3257 2.57563C10.1193 2.47479 9.87954 2.47479 9.67315 2.57563L1.90323 6.37184C1.54205 6.54682 1.39637 6.97389 1.57848 7.32682C1.76058 7.67975 2.19461 7.82211 2.55578 7.64416L10.0009 4.0081L17.4461 7.64712C17.8073 7.82211 18.2443 7.67975 18.4234 7.32979C18.6025 6.97982 18.4568 6.54978 18.0986 6.3748L10.3287 2.57859L10.3257 2.57563ZM10.0009 10.3312C10.4517 10.3312 10.884 10.1562 11.2028 9.84471C11.5215 9.53325 11.7006 9.1108 11.7006 8.67032C11.7006 8.22984 11.5215 7.8074 11.2028 7.49593C10.884 7.18446 10.4517 7.00948 10.0009 7.00948C9.55016 7.00948 9.11784 7.18446 8.79909 7.49593C8.48034 7.8074 8.30127 8.22984 8.30127 8.67032C8.30127 9.1108 8.48034 9.53325 8.79909 9.84471C9.11784 10.1562 9.55016 10.3312 10.0009 10.3312ZM10.0009 11.7547C8.1222 11.7547 6.6016 13.2406 6.6016 15.0764V15.7882C6.6016 16.1827 6.92636 16.5 7.33003 16.5C7.7337 16.5 8.05846 16.1827 8.05846 15.7882V15.0764C8.05846 14.0295 8.92954 13.1783 10.0009 13.1783C11.0723 13.1783 11.9434 14.0295 11.9434 15.0764V15.7882C11.9434 16.1827 12.2682 16.5 12.6718 16.5C13.0755 16.5 13.4003 16.1827 13.4003 15.7882V15.0764C13.4003 13.2406 11.8797 11.7547 10.0009 11.7547ZM6.11598 9.85664C6.11598 9.66969 6.0783 9.48457 6.00509 9.31186C5.93187 9.13914 5.82456 8.98221 5.68928 8.85001C5.554 8.71782 5.39339 8.61296 5.21664 8.54142C5.03989 8.46988 4.85044 8.43306 4.65912 8.43306C4.46781 8.43306 4.27836 8.46988 4.10161 8.54142C3.92485 8.61296 3.76425 8.71782 3.62897 8.85001C3.49369 8.98221 3.38638 9.13914 3.31316 9.31186C3.23995 9.48457 3.20227 9.66969 3.20227 9.85664C3.20227 10.0436 3.23995 10.2287 3.31316 10.4014C3.38638 10.5741 3.49369 10.7311 3.62897 10.8633C3.76425 10.9954 3.92485 11.1003 4.10161 11.1719C4.27836 11.2434 4.46781 11.2802 4.65912 11.2802C4.85044 11.2802 5.03989 11.2434 5.21664 11.1719C5.39339 11.1003 5.554 10.9954 5.68928 10.8633C5.82456 10.7311 5.93187 10.5741 6.00509 10.4014C6.0783 10.2287 6.11598 10.0436 6.11598 9.85664ZM16.7996 9.85664C16.7996 9.47908 16.6461 9.11699 16.3729 8.85001C16.0997 8.58304 15.7291 8.43306 15.3428 8.43306C14.9564 8.43306 14.5858 8.58304 14.3126 8.85001C14.0394 9.11699 13.8859 9.47908 13.8859 9.85664C13.8859 10.2342 14.0394 10.5963 14.3126 10.8633C14.5858 11.1302 14.9564 11.2802 15.3428 11.2802C15.7291 11.2802 16.0997 11.1302 16.3729 10.8633C16.6461 10.5963 16.7996 10.2342 16.7996 9.85664ZM5.02334 12.2293C3.4815 12.2293 2.23103 13.4512 2.23103 14.9578V15.7882C2.23103 16.1827 2.55578 16.5 2.95946 16.5C3.36313 16.5 3.68789 16.1827 3.68789 15.7882V14.9578C3.68789 14.2371 4.2858 13.6528 5.02334 13.6528C5.13867 13.6528 5.24794 13.6677 5.35417 13.6944C5.49985 13.2287 5.71535 12.7928 5.99154 12.3983C5.69107 12.2886 5.36327 12.2293 5.02334 12.2293ZM14.6477 13.6944C14.7539 13.6677 14.8632 13.6528 14.9785 13.6528C15.7161 13.6528 16.314 14.2371 16.314 14.9578V15.7882C16.314 16.1827 16.6388 16.5 17.0424 16.5C17.4461 16.5 17.7709 16.1827 17.7709 15.7882V14.9578C17.7709 13.4512 16.5204 12.2293 14.9785 12.2293C14.6386 12.2293 14.3108 12.2886 14.0103 12.3983C14.2865 12.7928 14.502 13.2287 14.6477 13.6944Z" fill="#212B36"/>
</svg>
