<svg width="24" height="24" viewBox="0 0 24 24" fill="none" xmlns="http://www.w3.org/2000/svg">
<path d="M7.625 7.1875C7.38438 7.1875 7.1875 7.38438 7.1875 7.625V16.375C7.1875 16.6156 7.38438 16.8125 7.625 16.8125H16.375C16.6156 16.8125 16.8125 16.6156 16.8125 16.375V7.625C16.8125 7.38438 16.6156 7.1875 16.375 7.1875H7.625ZM5.875 7.625C5.875 6.65977 6.65977 5.875 7.625 5.875H16.375C17.3402 5.875 18.125 6.65977 18.125 7.625V16.375C18.125 17.3402 17.3402 18.125 16.375 18.125H7.625C6.65977 18.125 5.875 17.3402 5.875 16.375V7.625ZM9.15625 8.9375H12H14.8438C15.2074 8.9375 15.5 9.23008 15.5 9.59375C15.5 9.95742 15.2074 10.25 14.8438 10.25H12.6563V14.8438C12.6563 15.2074 12.3637 15.5 12 15.5C11.6363 15.5 11.3438 15.2074 11.3438 14.8438V10.25H9.15625C8.79258 10.25 8.5 9.95742 8.5 9.59375C8.5 9.23008 8.79258 8.9375 9.15625 8.9375Z" fill="#6B6F76"/>
</svg>
