<svg width="24" height="24" viewBox="0 0 24 24" fill="none" xmlns="http://www.w3.org/2000/svg">
<path d="M6.14922 6.37422C6.14922 6.00016 6.45016 5.69922 6.82422 5.69922H9.52422C9.89828 5.69922 10.1992 6.00016 10.1992 6.37422C10.1992 6.74828 9.89828 7.04922 9.52422 7.04922H8.84922V11.0992C8.84922 12.8402 10.2583 14.2492 11.9992 14.2492C13.7402 14.2492 15.1492 12.8402 15.1492 11.0992V7.04922H14.4742C14.1002 7.04922 13.7992 6.74828 13.7992 6.37422C13.7992 6.00016 14.1002 5.69922 14.4742 5.69922H17.1742C17.5483 5.69922 17.8492 6.00016 17.8492 6.37422C17.8492 6.74828 17.5483 7.04922 17.1742 7.04922H16.4992V11.0992C16.4992 13.5855 14.4855 15.5992 11.9992 15.5992C9.51297 15.5992 7.49922 13.5855 7.49922 11.0992V7.04922H6.82422C6.45016 7.04922 6.14922 6.74828 6.14922 6.37422ZM5.69922 17.6242C5.69922 17.2502 6.00016 16.9492 6.37422 16.9492H17.6242C17.9983 16.9492 18.2992 17.2502 18.2992 17.6242C18.2992 17.9983 17.9983 18.2992 17.6242 18.2992H6.37422C6.00016 18.2992 5.69922 17.9983 5.69922 17.6242Z" fill="#6B6F76"/>
</svg>
